<?xml version="1.0" standalone="no"?>
<!DOCTYPE svg PUBLIC "-//W3C//DTD SVG 20010904//EN"
 "http://www.w3.org/TR/2001/REC-SVG-20010904/DTD/svg10.dtd">
<svg version="1.0" xmlns="http://www.w3.org/2000/svg"
 width="1024.000000pt" height="1024.000000pt" viewBox="0 0 1024.000000 1024.000000"
 preserveAspectRatio="xMidYMid meet">
<metadata>
Created by potrace 1.14, written by Peter Selinger 2001-2017
</metadata>
<g transform="translate(0.000000,1024.000000) scale(0.100000,-0.100000)"
fill="#000000" stroke="none">
<path d="M4805 9314 c-16 -2 -79 -9 -140 -15 -155 -15 -376 -54 -542 -95
-1216 -298 -2239 -1127 -2782 -2255 -201 -417 -324 -838 -388 -1324 -14 -113
-18 -209 -18 -500 0 -385 8 -484 61 -774 241 -1304 1104 -2432 2305 -3010 417
-201 837 -324 1324 -388 202 -26 798 -26 1000 0 527 69 944 198 1430 440 647
324 1180 803 1588 1429 357 546 566 1120 654 1793 14 113 18 209 18 505 0 391
-8 488 -61 779 -216 1170 -934 2204 -1964 2827 -36 21 -71 44 -78 51 -27 26
-375 192 -522 250 -342 135 -644 213 -1015 264 -122 17 -214 22 -495 24 -190
2 -358 1 -375 -1z m690 -794 c305 -36 593 -107 880 -217 110 -42 457 -212 451
-221 -2 -4 -265 -461 -585 -1016 -321 -554 -584 -1013 -586 -1020 -3 -6 20
-26 51 -44 127 -77 287 -258 364 -412 64 -126 110 -302 110 -416 l0 -54 1181
0 1182 0 -7 -140 c-37 -747 -288 -1412 -752 -1995 -113 -141 -378 -406 -519
-519 -109 -86 -298 -219 -385 -269 l-45 -26 -585 1015 c-427 741 -589 1013
-600 1010 -8 -2 -52 -21 -97 -41 -45 -20 -126 -48 -180 -62 -85 -23 -118 -26
-248 -26 -130 0 -163 3 -248 26 -54 14 -135 42 -180 62 -45 20 -89 39 -97 41
-11 3 -173 -269 -600 -1010 l-585 -1015 -45 26 c-87 50 -276 183 -385 269
-141 113 -406 378 -519 519 -464 583 -715 1248 -752 1995 l-7 140 1182 0 1181
0 0 54 c0 114 46 290 110 416 77 154 237 335 364 412 31 18 55 35 55 38 0 3
-265 464 -588 1024 l-589 1020 171 86 c95 47 210 101 257 119 309 122 630 202
926 231 60 5 127 12 149 14 71 7 477 -3 570 -14z"/>
<path d="M4945 5811 c-96 -26 -139 -46 -216 -97 -133 -88 -234 -223 -287 -382
-22 -67 -26 -94 -26 -212 0 -118 4 -145 26 -212 73 -219 234 -386 447 -462 82
-29 94 -31 236 -31 142 0 154 2 236 31 213 76 374 243 447 462 22 67 26 94 26
212 0 118 -4 145 -26 212 -73 220 -235 387 -447 461 -75 27 -102 31 -216 34
-104 2 -144 -1 -200 -16z"/>
</g>
</svg>
